<svg xmlns="http://www.w3.org/2000/svg" width="209" height="35"><path fill="#31C4F3" d="M0 0h74.8v35H0V0z"/><path fill="#389AD5" d="M74.8 0H209v35H74.8V0z"/><path fill="none" d="M87.9 13h108.8v10H87.9z"/><path fill="#FFF" d="M88.8 13.5h2.4v8.4h-2.4v-8.4zM103.5 13.5v8.4h-2l-3.7-4.5v4.5h-2.3v-8.4h2l3.7 4.5v-4.5h2.3zM121.7 18.3c.3.4.4.8.4 1.3 0 .7-.3 1.3-.9 1.7-.6.4-1.4.6-2.6.6h-4.5v-8.4h4.3c1.1 0 1.9.2 2.4.6s.8.9.8 1.6c0 .4-.1.8-.3 1.1s-.5.6-.8.8c.6.1 1 .4 1.2.7zm-5.2-3.1v1.6h1.6c.8 0 1.2-.3 1.2-.8s-.4-.8-1.2-.8h-1.6zm3.2 4.1c0-.6-.4-.9-1.2-.9h-2v1.7h2c.8.1 1.2-.2 1.2-.8zM129.7 19.7h-1.3v2.2H126v-8.4h3.8c.8 0 1.4.1 2 .4.6.3 1 .6 1.3 1.1.3.5.5 1 .5 1.6 0 .6-.1 1.1-.4 1.6-.3.5-.7.8-1.2 1.1l1.8 2.6h-2.5l-1.6-2.2zm1.1-4c-.2-.2-.6-.3-1.1-.3h-1.3v2.5h1.3c.5 0 .9-.1 1.1-.3.2-.2.4-.5.4-.9s-.1-.8-.4-1zM139.4 21.5c-.7-.4-1.3-.9-1.7-1.6-.4-.7-.6-1.4-.6-2.2 0-.8.2-1.6.6-2.2.4-.7 1-1.2 1.7-1.6s1.5-.6 2.4-.6 1.7.2 2.4.6 1.3.9 1.7 1.6c.4.7.6 1.4.6 2.2 0 .8-.2 1.6-.6 2.2-.4.7-1 1.2-1.7 1.6-.7.4-1.5.6-2.4.6s-1.7-.2-2.4-.6zm3.5-1.7c.3-.2.6-.5.8-.8.2-.4.3-.8.3-1.3s-.1-.9-.3-1.3c-.2-.4-.5-.6-.8-.8-.3-.2-.7-.3-1.2-.3s-.8.1-1.2.3c-.3.2-.6.5-.8.8-.2.4-.3.8-.3 1.3s.1.9.3 1.3c.2.4.5.6.8.8.3.2.7.3 1.2.3s.9-.1 1.2-.3zM163.2 13.5l-2.7 8.4H158l-1.6-5.1-1.7 5.1h-2.5l-2.7-8.4h2.4l1.7 5.4 1.8-5.4h2.2l1.7 5.4 1.8-5.4h2.1zM167.7 21.8c-.6-.2-1.2-.4-1.6-.7l.8-1.8c.4.2.8.4 1.3.6s1 .2 1.5.2c.9 0 1.4-.2 1.4-.7 0-.2-.1-.4-.4-.5-.3-.1-.7-.2-1.3-.4-.6-.1-1.2-.3-1.6-.4-.4-.2-.8-.4-1.1-.8-.3-.3-.5-.8-.5-1.4 0-.5.1-1 .4-1.4.3-.4.7-.7 1.3-1 .6-.2 1.2-.4 2-.4.6 0 1.1.1 1.6.2s1 .3 1.4.5l-.7 1.8c-.8-.4-1.6-.6-2.3-.6-.5 0-.8.1-1 .2-.2.1-.3.3-.3.5s.1.4.4.5c.3.1.7.2 1.2.3.6.1 1.2.3 1.6.4.4.2.8.4 1.1.7.3.3.5.8.5 1.4 0 .5-.1 1-.4 1.4s-.7.7-1.3 1c-.6.2-1.2.4-2 .4-.7.3-1.4.2-2 0zM183.9 20.1v1.8h-6.7v-8.4h6.6v1.8h-4.2v1.4h3.7v1.8h-3.7V20h4.3zM191.5 19.7h-1.3v2.2h-2.4v-8.4h3.8c.8 0 1.4.1 2 .4.6.3 1 .6 1.3 1.1.3.5.5 1 .5 1.6 0 .6-.1 1.1-.4 1.6-.3.5-.7.8-1.2 1.1l1.8 2.6H193l-1.5-2.2zm1.1-4c-.2-.2-.6-.3-1.1-.3h-1.3v2.5h1.3c.5 0 .9-.1 1.1-.3.2-.2.4-.5.4-.9s-.1-.8-.4-1z"/><g><path fill="none" d="M13 13h48.7v10H13z"/><path fill="#FFF" d="M19.8 14.8h-2.6v7.4h-1.4v-7.4h-2.6v-1.1h6.6v1.1zM25 18.6v3.5h-1.4v-8.5h3.2c1 0 1.7.2 2.2.6s.8 1 .8 1.8c0 .4-.1.8-.3 1.1s-.6.6-1 .8c.5.2.8.4 1 .7s.3.8.3 1.3v.7c0 .2 0 .5.1.7s.2.4.3.5v.1h-1.5c-.2-.1-.3-.3-.3-.6s-.1-.5-.1-.8V20c0-.4-.1-.8-.4-1s-.6-.4-1-.4H25zm0-1.1h1.7c.6 0 1-.1 1.2-.3s.4-.6.4-1-.1-.8-.4-1-.7-.4-1.2-.4H25v2.7zM36.6 17.8l2.1-4.1h1.6l-3 5.5v3h-1.4v-3.1L33 13.6h1.6l2 4.2zM51.1 22.1h-1.4v-8.5h1.4v8.5zM61.5 14.8h-2.6v7.4h-1.4v-7.4h-2.6v-1.1h6.6v1.1z"/></g></svg>